<mxfile host="app.diagrams.net" agent="Mozilla/5.0 (Windows NT 10.0; Win64; x64) AppleWebKit/537.36 (KHTML, like Gecko) Chrome/129.0.0.0 Safari/537.36" version="24.7.16">
  <diagram name="第 1 页" id="dOH1x1yVy9woD1z8up9v">
    <mxGraphModel dx="1909" dy="1035" grid="1" gridSize="10" guides="1" tooltips="1" connect="1" arrows="1" fold="1" page="1" pageScale="1" pageWidth="827" pageHeight="1169" math="0" shadow="0">
      <root>
        <mxCell id="0" />
        <mxCell id="1" parent="0" />
        <mxCell id="hHwg_m1InPGkKkV1vgOT-1" value="" style="edgeStyle=orthogonalEdgeStyle;rounded=0;orthogonalLoop=1;jettySize=auto;html=1;fontFamily=Verdana;fontSize=18;" edge="1" source="hHwg_m1InPGkKkV1vgOT-2" target="hHwg_m1InPGkKkV1vgOT-4" parent="1">
          <mxGeometry relative="1" as="geometry" />
        </mxCell>
        <mxCell id="hHwg_m1InPGkKkV1vgOT-2" value="&lt;font style=&quot;vertical-align: inherit;&quot;&gt;&lt;font style=&quot;vertical-align: inherit; font-size: 16px;&quot;&gt;&lt;span style=&quot;font-family: 宋体; font-size: 18px;&quot;&gt;开始&lt;/span&gt;&lt;/font&gt;&lt;/font&gt;" style="rounded=1;whiteSpace=wrap;html=1;fontSize=18;glass=0;strokeWidth=1;shadow=0;fontFamily=Verdana;" vertex="1" parent="1">
          <mxGeometry x="290" y="70" width="120" height="40" as="geometry" />
        </mxCell>
        <mxCell id="hHwg_m1InPGkKkV1vgOT-3" value="" style="edgeStyle=orthogonalEdgeStyle;rounded=0;orthogonalLoop=1;jettySize=auto;html=1;fontFamily=Verdana;fontSize=18;" edge="1" source="hHwg_m1InPGkKkV1vgOT-4" target="hHwg_m1InPGkKkV1vgOT-6" parent="1">
          <mxGeometry relative="1" as="geometry" />
        </mxCell>
        <mxCell id="hHwg_m1InPGkKkV1vgOT-4" value="&lt;span style=&quot;font-family: 宋体;&quot;&gt;&lt;font style=&quot;font-size: 18px;&quot;&gt;计算模型的建立&lt;/font&gt;&lt;/span&gt;" style="rounded=0;whiteSpace=wrap;html=1;fontFamily=Verdana;fontSize=18;" vertex="1" parent="1">
          <mxGeometry x="260" y="150" width="180" height="50" as="geometry" />
        </mxCell>
        <mxCell id="hHwg_m1InPGkKkV1vgOT-5" value="" style="edgeStyle=orthogonalEdgeStyle;rounded=0;orthogonalLoop=1;jettySize=auto;html=1;fontFamily=Verdana;fontSize=18;" edge="1" source="hHwg_m1InPGkKkV1vgOT-6" target="hHwg_m1InPGkKkV1vgOT-8" parent="1">
          <mxGeometry relative="1" as="geometry" />
        </mxCell>
        <mxCell id="hHwg_m1InPGkKkV1vgOT-6" value="&lt;span style=&quot;font-family: 宋体;&quot;&gt;&lt;font style=&quot;font-size: 18px;&quot;&gt;引入延迟和能耗的权重因子构建综合成本问题模型&lt;/font&gt;&lt;/span&gt;" style="rounded=0;whiteSpace=wrap;html=1;fontFamily=Verdana;fontSize=18;" vertex="1" parent="1">
          <mxGeometry x="210" y="240" width="280" height="60" as="geometry" />
        </mxCell>
        <mxCell id="hHwg_m1InPGkKkV1vgOT-8" value="&lt;span style=&quot;font-family: 宋体;&quot;&gt;问题模型分解&lt;/span&gt;" style="rounded=0;whiteSpace=wrap;html=1;fontFamily=Verdana;fontSize=18;" vertex="1" parent="1">
          <mxGeometry x="270" y="330" width="160" height="50" as="geometry" />
        </mxCell>
        <mxCell id="hHwg_m1InPGkKkV1vgOT-9" value="" style="edgeStyle=orthogonalEdgeStyle;rounded=0;orthogonalLoop=1;jettySize=auto;html=1;fontFamily=Verdana;fontSize=18;" edge="1" source="hHwg_m1InPGkKkV1vgOT-10" target="hHwg_m1InPGkKkV1vgOT-12" parent="1">
          <mxGeometry relative="1" as="geometry" />
        </mxCell>
        <mxCell id="hHwg_m1InPGkKkV1vgOT-10" value="&lt;font style=&quot;vertical-align: inherit; font-size: 18px;&quot;&gt;&lt;font style=&quot;vertical-align: inherit; font-size: 18px;&quot;&gt;&lt;span style=&quot;font-family: 宋体;&quot;&gt;资源分配问题&lt;/span&gt;&lt;/font&gt;&lt;/font&gt;" style="rounded=0;whiteSpace=wrap;html=1;fontFamily=Verdana;fontSize=18;" vertex="1" parent="1">
          <mxGeometry x="120" y="450" width="170" height="50" as="geometry" />
        </mxCell>
        <mxCell id="hHwg_m1InPGkKkV1vgOT-12" value="&lt;font style=&quot;vertical-align: inherit; font-size: 18px;&quot;&gt;&lt;font style=&quot;vertical-align: inherit; font-size: 18px;&quot;&gt;&lt;span style=&quot;font-family: 宋体;&quot;&gt;根据数学变化&lt;/span&gt;&lt;span style=&quot;font-family: 宋体;&quot;&gt;转化成凸优化问题用凸优化工具解决&lt;/span&gt;&lt;/font&gt;&lt;/font&gt;" style="rounded=0;whiteSpace=wrap;html=1;fontFamily=Verdana;fontSize=18;" vertex="1" parent="1">
          <mxGeometry x="80" y="545" width="250" height="80" as="geometry" />
        </mxCell>
        <mxCell id="hHwg_m1InPGkKkV1vgOT-14" value="&lt;font style=&quot;vertical-align: inherit; font-size: 18px;&quot;&gt;&lt;font style=&quot;vertical-align: inherit; font-size: 18px;&quot;&gt;&lt;span style=&quot;font-family: 宋体;&quot;&gt;计算卸载问题&lt;/span&gt;&lt;/font&gt;&lt;/font&gt;" style="rounded=0;whiteSpace=wrap;html=1;fontFamily=Verdana;fontSize=18;" vertex="1" parent="1">
          <mxGeometry x="440" y="450" width="170" height="50" as="geometry" />
        </mxCell>
        <mxCell id="hHwg_m1InPGkKkV1vgOT-17" value="" style="edgeStyle=orthogonalEdgeStyle;rounded=0;orthogonalLoop=1;jettySize=auto;html=1;fontFamily=Verdana;fontSize=18;" edge="1" source="hHwg_m1InPGkKkV1vgOT-18" parent="1">
          <mxGeometry relative="1" as="geometry">
            <mxPoint x="350" y="800" as="targetPoint" />
          </mxGeometry>
        </mxCell>
        <mxCell id="hHwg_m1InPGkKkV1vgOT-18" value="&lt;font style=&quot;vertical-align: inherit;&quot;&gt;&lt;font size=&quot;1&quot; style=&quot;vertical-align: inherit;&quot;&gt;&lt;span style=&quot;font-family: 宋体; font-size: 18px;&quot;&gt;交替优化寻找最优解&lt;/span&gt;&lt;/font&gt;&lt;/font&gt;" style="rounded=0;whiteSpace=wrap;html=1;fontFamily=Verdana;fontSize=18;" vertex="1" parent="1">
          <mxGeometry x="260" y="710" width="180" height="50" as="geometry" />
        </mxCell>
        <mxCell id="hHwg_m1InPGkKkV1vgOT-23" value="&lt;font style=&quot;vertical-align: inherit; font-size: 18px;&quot;&gt;&lt;font style=&quot;vertical-align: inherit; font-size: 18px;&quot;&gt;&lt;span style=&quot;font-family: 宋体;&quot;&gt;结束&lt;/span&gt;&lt;/font&gt;&lt;/font&gt;" style="rounded=1;whiteSpace=wrap;html=1;fontSize=18;glass=0;strokeWidth=1;shadow=0;fontFamily=Verdana;" vertex="1" parent="1">
          <mxGeometry x="290" y="800" width="120" height="40" as="geometry" />
        </mxCell>
        <mxCell id="hHwg_m1InPGkKkV1vgOT-24" value="" style="endArrow=classic;html=1;rounded=0;exitX=1;exitY=0.5;exitDx=0;exitDy=0;exitPerimeter=0;fontFamily=Verdana;fontSize=18;" edge="1" source="hHwg_m1InPGkKkV1vgOT-16" parent="1">
          <mxGeometry width="50" height="50" relative="1" as="geometry">
            <mxPoint x="767.5" y="1185" as="sourcePoint" />
            <mxPoint x="650" y="620" as="targetPoint" />
            <Array as="points" />
          </mxGeometry>
        </mxCell>
        <mxCell id="hHwg_m1InPGkKkV1vgOT-28" value="" style="endArrow=classic;html=1;rounded=0;exitX=0.5;exitY=1;exitDx=0;exitDy=0;entryX=0.5;entryY=0;entryDx=0;entryDy=0;" edge="1" parent="1" target="hHwg_m1InPGkKkV1vgOT-14">
          <mxGeometry width="50" height="50" relative="1" as="geometry">
            <mxPoint x="350" y="380" as="sourcePoint" />
            <mxPoint x="535" y="450" as="targetPoint" />
            <Array as="points">
              <mxPoint x="350" y="410" />
              <mxPoint x="525" y="410" />
            </Array>
          </mxGeometry>
        </mxCell>
        <mxCell id="hHwg_m1InPGkKkV1vgOT-29" value="" style="endArrow=classic;html=1;rounded=0;entryX=0.5;entryY=0;entryDx=0;entryDy=0;" edge="1" parent="1" target="hHwg_m1InPGkKkV1vgOT-10">
          <mxGeometry width="50" height="50" relative="1" as="geometry">
            <mxPoint x="350" y="380" as="sourcePoint" />
            <mxPoint x="310" y="390" as="targetPoint" />
            <Array as="points">
              <mxPoint x="350" y="410" />
              <mxPoint x="205" y="410" />
            </Array>
          </mxGeometry>
        </mxCell>
        <mxCell id="hHwg_m1InPGkKkV1vgOT-16" value="&lt;span style=&quot;font-family: 宋体;&quot;&gt;&lt;font style=&quot;font-size: 18px;&quot;&gt;将离散粒子群优化算法与混沌映射和柯西突变相结合，并基于变量更新动态调整权值和学习因子来进行优化&lt;/font&gt;&lt;/span&gt;" style="rounded=0;whiteSpace=wrap;html=1;fontFamily=Verdana;fontSize=18;" vertex="1" parent="1">
          <mxGeometry x="365" y="545" width="320" height="80" as="geometry" />
        </mxCell>
        <mxCell id="hHwg_m1InPGkKkV1vgOT-33" value="" style="endArrow=classic;html=1;rounded=0;exitX=0.5;exitY=1;exitDx=0;exitDy=0;entryX=0.5;entryY=0;entryDx=0;entryDy=0;" edge="1" parent="1" source="hHwg_m1InPGkKkV1vgOT-14" target="hHwg_m1InPGkKkV1vgOT-16">
          <mxGeometry width="50" height="50" relative="1" as="geometry">
            <mxPoint x="650" y="570" as="sourcePoint" />
            <mxPoint x="700" y="520" as="targetPoint" />
          </mxGeometry>
        </mxCell>
        <mxCell id="hHwg_m1InPGkKkV1vgOT-34" value="" style="endArrow=classic;html=1;rounded=0;entryX=0.5;entryY=0;entryDx=0;entryDy=0;exitX=0.481;exitY=0.997;exitDx=0;exitDy=0;exitPerimeter=0;" edge="1" parent="1" source="hHwg_m1InPGkKkV1vgOT-12" target="hHwg_m1InPGkKkV1vgOT-18">
          <mxGeometry width="50" height="50" relative="1" as="geometry">
            <mxPoint x="200" y="670" as="sourcePoint" />
            <mxPoint x="200" y="750" as="targetPoint" />
            <Array as="points">
              <mxPoint x="200" y="670" />
              <mxPoint x="350" y="670" />
            </Array>
          </mxGeometry>
        </mxCell>
        <mxCell id="hHwg_m1InPGkKkV1vgOT-35" value="" style="endArrow=classic;html=1;rounded=0;exitX=0.488;exitY=0.989;exitDx=0;exitDy=0;exitPerimeter=0;entryX=0.5;entryY=0;entryDx=0;entryDy=0;" edge="1" parent="1" source="hHwg_m1InPGkKkV1vgOT-16" target="hHwg_m1InPGkKkV1vgOT-18">
          <mxGeometry width="50" height="50" relative="1" as="geometry">
            <mxPoint x="470" y="790" as="sourcePoint" />
            <mxPoint x="520" y="740" as="targetPoint" />
            <Array as="points">
              <mxPoint x="520" y="670" />
              <mxPoint x="350" y="670" />
            </Array>
          </mxGeometry>
        </mxCell>
      </root>
    </mxGraphModel>
  </diagram>
</mxfile>
